<svg width="88" height="89" viewBox="0 0 88 89" fill="none" xmlns="http://www.w3.org/2000/svg">
<path d="M54.8694 75.3355L51.5768 68.1311C49.7155 68.6953 47.7953 69.0429 45.8543 69.1669L45.1602 77.5273C45.1602 77.5273 42.2166 77.9419 36.8157 76.3335C34.5717 75.7285 32.3599 75.0099 30.1889 74.1803L33.0085 66.6169C30.8077 65.5421 28.7737 64.1551 26.9696 62.4986L20.4523 67.4546C20.4523 67.4546 18.1753 65.5452 15.7556 60.4549C14.7035 58.3827 13.7574 56.2583 12.921 54.09L19.8907 51.3368C19.3584 49.6416 19.0061 47.8951 18.8396 46.1261L10.8197 45.4593C10.8197 45.4593 10.4056 42.5166 12.0136 37.1149C12.6178 34.8716 13.3357 32.6606 14.1645 30.4903L21.0722 33.0649C22.1468 30.7278 23.5695 28.5672 25.2919 26.6567L20.4055 20.8861C20.4055 20.8861 22.1952 18.5152 27.1502 15.83C29.1644 14.671 31.2363 13.6153 33.3579 12.6671L36.46 19.4557C38.5494 18.7848 40.7173 18.3888 42.909 18.2775L43.4884 11.2999C43.4884 11.2999 46.4311 10.8858 51.8328 12.4937C54.0767 13.0985 56.2883 13.8168 58.4592 14.646L56.0354 21.1559C57.9992 22.1821 59.8203 23.4607 61.4525 24.9591L66.7396 20.483C66.7396 20.483 69.1105 22.2727 71.7966 27.2272C72.9557 29.2414 74.0114 31.3133 74.9596 33.4349L68.6033 36.3369C69.2161 38.3469 69.5762 40.4255 69.6753 42.5246L77.1523 43.1458C77.1523 43.1458 77.5664 46.0886 75.9584 51.4903C75.3537 53.7327 74.6349 55.9427 73.8048 58.1117L66.8154 55.5069C65.7417 57.5735 64.3889 59.4826 62.795 61.1806L67.8208 67.1169C67.8208 67.1169 66.032 69.4874 61.081 72.1716C60.4106 72.5834 59.7178 72.9578 59.0059 73.2929C58.0815 73.7628 56.76 74.416 54.8694 75.3355Z" fill="#E4E8EE"/>
<path d="M51.5781 58.18C59.5579 54.1141 62.7307 44.3492 58.6648 36.3695C54.5989 28.3898 44.834 25.217 36.8543 29.2829C28.8746 33.3487 25.7018 43.1136 29.7677 51.0933C33.8335 59.0731 43.5984 62.2459 51.5781 58.18Z" fill="white"/>
</svg>
