<svg xmlns="http://www.w3.org/2000/svg" width="87.832" height="88.106" viewBox="0 0 87.832 88.106">
  <g id="그룹_175" data-name="그룹 175" transform="translate(0 29.551) rotate(-27)">
    <path id="합치기_1" data-name="합치기 1" d="M28.109,65.661l.337-7.914a25.283,25.283,0,0,1-5.569-1.675l-4.414,7.134s-2.811-.967-6.893-4.852a68.579,68.579,0,0,1-4.927-4.927l5.946-5.459a25.425,25.425,0,0,1-3.511-6.411L1.021,43.014S-.141,40.279.014,34.645a68.582,68.582,0,0,1,.364-6.958l7.46.711a25.312,25.312,0,0,1,1.429-5.12L2.424,19.043s.967-2.81,4.852-6.893A68.536,68.536,0,0,1,12.2,7.224l4.986,5.43A25.442,25.442,0,0,1,23.855,8.86L22.121,1.5S24.792.2,30.426.057a68.437,68.437,0,0,1,6.967,0l-.318,7.457a25.291,25.291,0,0,1,6.281,1.878L47.04,3.438s2.81.967,6.893,4.852a68.6,68.6,0,0,1,4.927,4.926l-5.115,4.7a25.418,25.418,0,0,1,3.1,5.848l6.743-1.588s1.3,2.671,1.444,8.305a68.413,68.413,0,0,1,0,6.967l-6.981-.3a25.308,25.308,0,0,1-1.854,6l6.38,3.948s-.967,2.81-4.852,6.893A68.227,68.227,0,0,1,52.8,58.911l-5.045-5.494a25.405,25.405,0,0,1-6.158,3.23l1.783,7.571s-2.67,1.3-8.3,1.444a21.318,21.318,0,0,1-2.358.057C31.685,65.718,30.211,65.7,28.109,65.661Z" transform="translate(0 0)" fill="#eeeef8"/>
    <circle id="타원_3" data-name="타원 3" cx="16.216" cy="16.216" r="16.216" transform="translate(16.749 16.449)" fill="#fff"/>
  </g>
</svg>
