<svg id="그룹_163" data-name="그룹 163" xmlns="http://www.w3.org/2000/svg" width="144.416" height="145.807" viewBox="0 0 144.416 145.807">
  <g id="그룹_9" data-name="그룹 9" transform="translate(0 0)">
    <path id="합치기_1" data-name="합치기 1" d="M62.365,145.681l.748-17.559a56.094,56.094,0,0,1-12.355-3.717l-9.794,15.829s-6.237-2.146-15.294-10.765c0,0-1.238-.838-10.931-10.931L27.93,106.426A56.411,56.411,0,0,1,20.14,92.2L2.265,95.434S-.313,89.365.032,76.867c0,0-.205-1.48.809-15.437l16.551,1.576a56.16,56.16,0,0,1,3.171-11.361L5.379,42.25s2.144-6.235,10.765-15.294c0,0,.836-1.236,10.929-10.929L38.136,28.074a56.449,56.449,0,0,1,14.79-8.416L49.08,3.329S55.006.435,67.506.126c0,0,1.467-.283,15.457,0L82.258,16.67a56.113,56.113,0,0,1,13.935,4.168l8.174-13.209s6.235,2.146,15.292,10.765c0,0,1.238.838,10.931,10.929L119.242,39.744a56.393,56.393,0,0,1,6.884,12.975L141.087,49.2s2.894,5.926,3.2,18.427c0,0,.283,1.465,0,15.457l-15.489-.66a56.15,56.15,0,0,1-4.114,13.3l14.156,8.76s-2.144,6.235-10.765,15.294c0,0-.836,1.238-10.929,10.929l-11.194-12.19a56.367,56.367,0,0,1-13.663,7.167l3.955,16.8s-5.925,2.892-18.425,3.2a47.3,47.3,0,0,1-5.232.126C70.3,145.807,67.028,145.776,62.365,145.681Z" transform="translate(0 0)" fill="#eeeef8"/>
    <g id="그룹_4" data-name="그룹 4" transform="translate(37.162 36.496)">
      <circle id="타원_3" data-name="타원 3" cx="35.977" cy="35.977" r="35.977" fill="#fff"/>
      <circle id="타원_4" data-name="타원 4" cx="25.698" cy="25.698" r="25.698" transform="translate(10.279 10.279)" fill="#eeeef8"/>
    </g>
  </g>
</svg>
