<svg width="618" height="509" viewBox="0 0 618 509" fill="none" xmlns="http://www.w3.org/2000/svg">
<path d="M348.395 146.393L357.17 132.594C354.099 130.006 351.337 127.072 348.939 123.85L333.685 132.048C333.685 132.048 329.662 127.416 326.369 116.26C326.369 116.26 325.762 115.008 322.647 102.367L338.911 98.7438C338.297 93.7252 338.412 88.6442 339.252 83.6585L323.345 77.9489C323.345 77.9489 324.091 71.8594 330.183 61.9493C330.183 61.9493 330.706 60.6613 338.015 49.8874L350.618 58.8579C352.955 56.0302 355.582 53.4563 358.458 51.179L350.591 36.5427C350.591 36.5427 355.223 32.5197 366.379 29.2275C366.379 29.2275 367.628 28.6206 380.27 25.5054L383.583 40.3612C388.835 39.5941 394.173 39.6277 399.415 40.4607L403.911 25.5163C403.911 25.5163 410.036 25.935 420.249 31.5049C420.249 31.5049 421.563 31.9597 432.704 38.6954L424.44 51.6973C427.951 54.561 431.074 57.8696 433.731 61.5397L446.457 54.6989C446.457 54.6989 450.479 59.3309 453.771 70.4861C453.771 70.4861 454.378 71.7376 457.494 84.3777L443.499 87.4987C443.933 92.0529 443.768 96.6443 443.01 101.156L456.704 105.277C456.704 105.277 456.279 111.398 450.713 121.614C450.713 121.614 450.259 122.926 443.523 134.068L431.349 126.331C428.559 129.649 425.367 132.607 421.846 135.136L429.177 148.78C429.177 148.78 424.545 152.803 413.389 156.095C413.389 156.095 412.14 156.703 399.498 159.817L396.155 144.782C391.37 145.246 386.544 145.051 381.812 144.201L377.185 159.574C377.185 159.574 371.066 159.148 360.85 153.584C359.383 152.886 357.956 152.107 356.576 151.251C354.73 150.186 352.109 148.638 348.395 146.393Z" fill="#E4E8EE"/>
<path d="M374.396 121.407C390.406 130.65 410.878 125.165 420.121 109.155C429.365 93.1449 423.879 72.6732 407.869 63.4299C391.859 54.1865 371.388 59.6719 362.144 75.6818C352.901 91.6917 358.386 112.163 374.396 121.407Z" fill="white"/>
<path d="M379.179 113.124C390.614 119.726 405.237 115.808 411.839 104.373C418.441 92.9371 414.523 78.3146 403.088 71.7123C391.652 65.11 377.03 69.0281 370.427 80.4636C363.825 91.8991 367.743 106.522 379.179 113.124Z" fill="#E4E8EE"/>
<g opacity="0.54">
<path d="M230.909 218.821L222.333 213.371C220.725 215.278 218.902 216.993 216.9 218.482L221.995 227.962C221.995 227.962 219.117 230.464 212.184 232.507C209.347 233.424 206.466 234.196 203.551 234.82L201.302 224.715C198.184 225.095 195.027 225.023 191.93 224.5L188.376 234.387C188.376 234.387 184.593 233.923 178.435 230.138C175.855 228.644 173.354 227.019 170.939 225.271L176.512 217.44C174.755 215.988 173.156 214.355 171.741 212.568L162.648 217.453C162.648 217.453 160.15 214.58 158.103 207.642C157.186 204.806 156.414 201.925 155.79 199.01L165.022 196.95C164.545 193.688 164.565 190.372 165.082 187.116L155.793 184.321C155.793 184.321 156.056 180.519 159.517 174.17C160.873 171.516 162.365 168.933 163.985 166.431L172.064 171.567C173.843 169.385 175.899 167.444 178.179 165.794L173.928 157.882C173.928 157.882 176.803 155.385 183.739 153.338C186.575 152.421 189.456 151.648 192.371 151.024L194.308 159.718C197.138 159.449 199.99 159.551 202.794 160.022L205.354 151.512C205.354 151.512 209.158 151.776 215.506 155.235C218.16 156.592 220.743 158.083 223.245 159.703L218.437 167.267C220.498 169.001 222.336 170.985 223.908 173.173L232.385 168.617C232.385 168.617 234.883 171.491 236.931 178.428C236.931 178.428 237.309 179.205 239.244 187.06L229.908 189.142C230.197 192.116 230.075 195.115 229.547 198.056L239.1 200.931C239.1 200.931 238.836 204.733 235.378 211.082C234.944 211.993 234.46 212.88 233.929 213.738C233.267 214.884 232.304 216.512 230.909 218.821Z" fill="#E4E8EE"/>
<path d="M215.381 202.664C221.125 192.715 217.716 179.994 207.767 174.25C197.819 168.507 185.098 171.915 179.354 181.864C173.61 191.812 177.019 204.533 186.967 210.277C196.916 216.021 209.637 212.612 215.381 202.664Z" fill="white"/>
<path d="M210.234 199.693C214.336 192.587 211.902 183.5 204.796 179.398C197.69 175.295 188.603 177.73 184.501 184.836C180.398 191.942 182.833 201.028 189.939 205.131C197.045 209.233 206.131 206.799 210.234 199.693Z" fill="#E4E8EE"/>
</g>
<path d="M618 429.169H0V429.478H618V429.169Z" fill="#EBEBEB"/>
<path d="M214.099 437.055H185.449V437.364H214.099V437.055Z" fill="#EBEBEB"/>
<path d="M567.04 443.68H496.996V443.989H567.04V443.68Z" fill="#EBEBEB"/>
<path d="M122.846 443.68H52.8018V443.989H122.846V443.68Z" fill="#EBEBEB"/>
<path d="M556.991 467.374H530.293V467.683H556.991V467.374Z" fill="#EBEBEB"/>
<path d="M578.621 319.029C576.038 311.613 555.656 321.699 547.437 333.972C541.937 342.142 538.575 350.88 537.018 362.598C537.203 349.198 537.418 334.85 537.624 321.291C539.293 317.917 543.099 310.105 545.856 303.991C555.002 283.375 576.756 275.711 584.271 262.684C594.159 245.627 594.06 220.054 585.68 210.834C578.449 202.763 554.261 256.999 551.542 263.055C544.142 279.274 539.477 296.606 537.736 314.349C537.921 301.606 538.119 289.913 538.28 280.841C538.787 251.412 539.429 241.941 539.714 239.041C540.728 237.607 541.914 235.951 542.594 235.061C548.428 227.546 561.381 218.597 567.858 207.671C577.313 191.714 575.781 172.618 569.158 165.56C562.224 158.144 549.958 175.695 543.458 193.098C536.958 210.501 539.75 227.175 537.908 241.636C537.525 244.516 537.129 255.236 536.759 270.188C534.781 254.12 530.851 243.342 523.571 233.306C514.598 220.946 506.86 205.929 499.481 207.869C492.102 209.809 496.07 229.709 501.953 243.713C507.153 256.147 532.853 268.544 536.561 278.543C536.128 298.789 535.72 324.485 535.436 348.343C533.421 335.983 534.806 334.943 526.512 316.083C521.568 304.848 501.372 290.992 498.974 298.717C496.576 306.442 500.21 320.965 507.848 331.261C514.028 339.505 527.624 339.493 530.825 344.61C531.554 345.846 533.989 350.345 535.386 353.002C535.052 382.159 534.904 407.902 535.077 416.693L536.4 416.78C536.338 414.518 536.5 399.674 536.758 380.034C540.07 369.602 562.405 363.496 569.302 352.634C576.532 341.191 581.711 327.929 578.621 319.029Z" fill="#E6E6E6"/>
<path d="M557.621 429.837H514.781C513.654 429.823 512.565 429.425 511.695 428.708C510.825 427.991 510.227 426.998 509.998 425.894L506.945 410.889H565.531L562.495 425.894C562.264 427.013 561.652 428.018 560.763 428.737C559.875 429.455 558.764 429.844 557.621 429.837Z" fill="#E6E6E6"/>
<path d="M566.719 416.698H505.685C504.977 416.702 504.292 416.445 503.762 415.975C503.233 415.505 502.896 414.855 502.817 414.152L501.581 403.028C501.496 402.28 501.708 401.529 502.17 400.936C502.631 400.342 503.307 399.952 504.053 399.851H567.929C568.306 399.848 568.681 399.919 569.031 400.061C569.381 400.203 569.699 400.412 569.968 400.678C570.236 400.943 570.45 401.259 570.596 401.607C570.743 401.955 570.819 402.328 570.821 402.706C570.827 402.817 570.827 402.928 570.821 403.04L569.585 414.164C569.508 414.867 569.171 415.517 568.641 415.986C568.111 416.454 567.424 416.708 566.717 416.698H566.719Z" fill="#F0F0F0"/>
<path d="M151.67 66.5391H65.3975V161.266H151.67V66.5391Z" fill="#E6E6E6"/>
<path d="M159.048 66.5391H66.5459V161.266H159.048V66.5391Z" fill="#F5F5F5"/>
<path d="M153.153 72.4355H72.4424V155.359H153.153V72.4355Z" fill="white"/>
<path d="M100.71 143.394C96.0963 138.777 93.5049 132.518 93.5049 125.991C93.5049 119.464 96.0963 113.205 100.71 108.588L124.837 84.4121C129.45 89.0289 132.041 95.2885 132.041 101.815C132.041 108.342 129.45 114.601 124.837 119.218L100.71 143.394Z" fill="#F5F5F5"/>
<path d="M125.392 211.213H66.6699V277.487H125.392V211.213Z" fill="#E6E6E6"/>
<path d="M133.884 211.213H68.1035V277.487H133.884V211.213Z" fill="#F5F5F5"/>
<path d="M127.111 217.999H74.9023V270.714H127.111V217.999Z" fill="white"/>
<path d="M97.1658 232.748L89.377 240.537C87.2681 242.646 87.2681 246.065 89.377 248.174L97.1658 255.963C99.2746 258.071 102.694 258.071 104.803 255.963L112.591 248.174C114.7 246.065 114.7 242.646 112.591 240.537L104.803 232.748C102.694 230.639 99.2746 230.639 97.1658 232.748Z" fill="#F5F5F5"/>
<path d="M254.443 294.001H227.684V428.985H254.443V294.001Z" fill="#E6E6E6"/>
<path d="M227.684 294.013H112.229V428.997H227.684V294.013Z" fill="#F0F0F0"/>
<path d="M217.165 345.938H122.747V377.048H217.165V345.938Z" fill="#E6E6E6"/>
<path d="M217.165 383.994H122.747V415.104H217.165V383.994Z" fill="#E6E6E6"/>
<path d="M159.345 350.114H180.555C181.245 350.108 181.904 349.831 182.392 349.343C182.88 348.856 183.157 348.196 183.163 347.506C183.16 346.816 182.884 346.154 182.396 345.666C181.907 345.177 181.246 344.902 180.555 344.898H159.345C158.655 344.901 157.994 345.176 157.506 345.665C157.019 346.154 156.745 346.816 156.745 347.506C156.745 348.197 157.019 348.859 157.506 349.348C157.994 349.837 158.655 350.112 159.345 350.114Z" fill="#F0F0F0"/>
<path d="M217.165 307.895H122.747V339.005H217.165V307.895Z" fill="#E6E6E6"/>
<path d="M159.345 312.059H180.555C181.246 312.056 181.907 311.78 182.396 311.291C182.884 310.803 183.16 310.141 183.163 309.451C183.157 308.761 182.88 308.102 182.392 307.614C181.904 307.126 181.245 306.849 180.555 306.843H159.345C158.655 306.845 157.994 307.121 157.506 307.609C157.019 308.098 156.745 308.76 156.745 309.451C156.745 310.141 157.019 310.803 157.506 311.292C157.994 311.781 158.655 312.057 159.345 312.059Z" fill="#F0F0F0"/>
<path d="M159.345 388.172H180.555C181.248 388.169 181.911 387.892 182.4 387.401C182.889 386.91 183.163 386.245 183.163 385.552C183.161 384.862 182.885 384.201 182.396 383.713C181.908 383.226 181.245 382.952 180.555 382.952H159.345C158.656 382.952 157.994 383.226 157.507 383.714C157.019 384.201 156.745 384.863 156.745 385.552C156.744 385.895 156.81 386.235 156.939 386.552C157.069 386.869 157.26 387.158 157.502 387.401C157.743 387.645 158.031 387.838 158.347 387.97C158.663 388.102 159.002 388.171 159.345 388.172Z" fill="#F0F0F0"/>
<path d="M227.684 286.906H108.657V294.001H227.684V286.906Z" fill="#E6E6E6"/>
<path d="M258.176 286.918H227.684V294.013H258.176V286.918Z" fill="#E0E0E0"/>
<path d="M316.416 508.571C435.991 508.571 532.926 500.923 532.926 491.489C532.926 482.055 435.991 474.407 316.416 474.407C196.841 474.407 99.9062 482.055 99.9062 491.489C99.9062 500.923 196.841 508.571 316.416 508.571Z" fill="#F5F5F5"/>
<path d="M197.464 490.191H203.557L203.557 299.76H197.464L197.464 490.191Z" fill="#263238"/>
<path d="M448.507 385.168H347.872V371.214H448.507C449.723 371.214 450.889 371.697 451.749 372.557C452.609 373.417 453.093 374.583 453.093 375.799V380.582C453.093 381.798 452.61 382.965 451.75 383.825C450.89 384.685 449.723 385.168 448.507 385.168Z" fill="#97B1D4"/>
<path d="M444.638 491.242L437.346 375.985" stroke="#97B1D4" stroke-width="2.826" stroke-linecap="round" stroke-linejoin="round"/>
<path d="M416.717 496.952L409.425 381.695" stroke="#97B1D4" stroke-width="2.826" stroke-linecap="round" stroke-linejoin="round"/>
<path d="M343.534 491.242L350.826 375.985" stroke="#97B1D4" stroke-width="2.826" stroke-linecap="round" stroke-linejoin="round"/>
<path d="M371.455 496.952L378.747 381.695" stroke="#97B1D4" stroke-width="2.826" stroke-linecap="round" stroke-linejoin="round"/>
<path d="M457.443 375.985H356.808V362.031H457.443C458.659 362.031 459.826 362.514 460.686 363.374C461.546 364.234 462.029 365.4 462.029 366.616V371.399C462.029 372.616 461.546 373.782 460.686 374.642C459.826 375.502 458.66 375.985 457.443 375.985Z" fill="#E1E3F8"/>
<path opacity="0.2" d="M457.443 375.985H356.808V362.031H457.443C458.659 362.031 459.826 362.514 460.686 363.374C461.546 364.234 462.029 365.4 462.029 366.616V371.399C462.029 372.616 461.546 373.782 460.686 374.642C459.826 375.502 458.66 375.985 457.443 375.985Z" fill="black"/>
<path d="M356.093 494.74H362.186V304.309H356.093V494.74Z" fill="#263238"/>
<path d="M376.857 318.795C376.857 318.795 307.208 321.415 295.639 349.374C295.639 349.374 297.246 432.643 306.565 459.974L326.502 457.712L323.313 376.766L395.359 318.822L376.857 318.795Z" fill="#263238"/>
<path opacity="0.2" d="M376.857 318.795C376.857 318.795 307.208 321.415 295.639 349.374C295.639 349.374 297.246 432.643 306.565 459.974L326.502 457.712L323.313 376.766L395.359 318.822L376.857 318.795Z" fill="black"/>
<path d="M323.201 478.548H310.755L310.582 470.254L310.458 463.754L322.62 464.496L322.855 470.256L323.201 478.548Z" fill="#B55B52"/>
<path opacity="0.2" d="M322.855 470.254H310.578L310.454 463.754L322.616 464.496L322.855 470.254Z" fill="black"/>
<path d="M328.764 466.398L302.116 467.198L297.259 457.31L328.023 457.026L328.764 466.398Z" fill="#97B1D4"/>
<path d="M307.568 480.427C307.568 480.427 308.211 473.127 305.668 474.136C303.125 475.145 305.959 478.882 307.568 480.427Z" stroke="#E1E3F8" stroke-width="0.942" stroke-miterlimit="10"/>
<path d="M307.567 480.427C307.567 480.427 302.092 476.595 300.695 478.548C299.298 480.501 307.567 480.427 307.567 480.427Z" stroke="#E1E3F8" stroke-width="0.942" stroke-miterlimit="10"/>
<path d="M311.904 476.88L321.792 476.98C322.491 476.996 323.158 477.271 323.665 477.752C324.172 478.232 324.483 478.884 324.536 479.58L325.228 488.318C325.262 488.697 325.214 489.078 325.09 489.438C324.966 489.797 324.767 490.127 324.507 490.404C324.247 490.682 323.932 490.901 323.581 491.049C323.23 491.196 322.853 491.268 322.472 491.26C317.12 491.099 306.107 490.815 302.202 490.926C296.974 491.074 289.545 491.161 288.482 489.171C288.18 488.637 288.077 488.013 288.193 487.411C288.308 486.809 288.634 486.267 289.112 485.883C289.112 485.883 303.363 484.56 309.912 477.783C310.167 477.507 310.474 477.286 310.816 477.131C311.158 476.977 311.527 476.892 311.902 476.883L311.904 476.88Z" fill="#263238"/>
<path d="M439.349 318.795C439.349 318.795 440.672 335.024 440.177 347.569C439.608 362.03 408.477 374.761 363.149 367.345C363.149 367.345 359.614 391.781 347.081 414.313C334.548 436.845 314.945 470.254 314.945 470.254L295.664 457.709C295.664 457.709 321.051 387.257 325.884 367.703C330.717 348.149 332.633 338.768 346.451 332.662C360.269 326.556 390.49 318.795 390.49 318.795H439.349Z" fill="#263238"/>
<path d="M307.566 466.571L305.279 470.081L300.248 477.831L290.596 472.206L295.651 464.345L297.616 461.304L307.566 466.571Z" fill="#B55B52"/>
<path opacity="0.2" d="M307.565 466.571L305.278 470.081L295.65 464.346L297.615 461.305L307.565 466.571Z" fill="black"/>
<path d="M319.963 463.754L294.686 448.625L290.595 458.725L314.586 472.579L319.963 463.754Z" fill="#97B1D4"/>
<path d="M283.984 472.578C283.984 472.578 285.826 466.25 283.762 466.126C281.698 466.002 283.984 472.578 283.984 472.578Z" stroke="#E1E3F8" stroke-width="0.942" stroke-miterlimit="10"/>
<path d="M283.501 472.343C283.501 472.343 280.646 465.471 278.347 467.003C276.048 468.535 283.501 472.343 283.501 472.343Z" stroke="#E1E3F8" stroke-width="0.942" stroke-miterlimit="10"/>
<path d="M291.844 471.515L300.274 476.459C300.866 476.807 301.304 477.366 301.5 478.025C301.695 478.684 301.632 479.392 301.325 480.006L297.506 487.756C297.337 488.095 297.099 488.395 296.808 488.637C296.517 488.879 296.179 489.058 295.816 489.162C295.452 489.267 295.07 489.295 294.695 489.244C294.32 489.193 293.96 489.065 293.637 488.868C289.101 486.075 279.744 480.352 276.337 478.51C271.737 476.038 265.3 472.429 265.386 470.216C265.403 469.609 265.635 469.028 266.04 468.576C266.444 468.123 266.996 467.829 267.598 467.744C267.598 467.744 280.551 473.702 289.636 471.23C290.005 471.128 290.39 471.101 290.77 471.149C291.15 471.198 291.516 471.322 291.848 471.514L291.844 471.515Z" fill="#263238"/>
<path d="M361.11 247.874C361.11 247.874 358.51 276.228 359.553 283.52C359.553 283.52 332.46 287.488 318.765 285.609L309.594 283.309L298.123 286.114L301.25 295.199H310.423C310.423 295.199 317.097 297.078 320.014 295.199C320.014 295.199 342.942 299.785 356.488 298.326C370.034 296.867 374.237 291.713 374.843 281.442C375.412 271.554 381.925 249.528 376.722 244.523L361.11 247.874Z" fill="#B55B52"/>
<path d="M454.156 251.063C454.156 251.063 443.761 224.663 433.651 218.705C423.541 212.747 376.721 224.143 376.721 224.143C376.721 224.143 356.636 230.607 355.487 261.989L373.94 269.813L376.857 318.796H439.349L439.015 255.352L454.156 251.063Z" fill="#7195C5"/>
<path d="M377.573 172.402C377.573 172.402 371.393 171.623 369.712 166.988C368.031 162.353 374.483 164.688 373.939 156.309C373.395 147.93 383.024 145.927 390.007 149.609C396.99 153.291 408.077 149.275 412.255 154.309C416.433 159.343 414.603 164.024 414.603 164.024C414.603 164.024 426.617 177.624 411.389 186.902C396.161 196.18 377.573 172.402 377.573 172.402Z" fill="#263238"/>
<path d="M413.911 217.579C407.237 227.751 401.23 228.802 393.183 228.79C384.148 228.79 387.176 222.375 387.176 222.375C390.958 220.484 393.714 218.457 394.147 213.797C394.235 212.893 394.256 211.984 394.209 211.078C394.121 208.98 393.76 206.902 393.134 204.898C380.341 206.06 375.834 199.818 374.234 188.039C373.344 180.794 374.663 173.449 378.016 166.965C385.432 175.691 399.386 168.856 399.386 168.856C395.468 180.19 405.059 184.256 405.059 184.256C408.767 181.932 411.733 183.956 411.449 188.471C411.394 189.73 410.964 190.943 410.212 191.954C409.461 192.965 408.423 193.728 407.234 194.144C406.504 214.23 413.911 217.579 413.911 217.579Z" fill="#B55B52"/>
<path d="M381.542 192.674C381.446 192.663 381.358 192.618 381.293 192.547C381.228 192.477 381.191 192.385 381.188 192.289C381.185 192.193 381.216 192.1 381.277 192.025C381.337 191.95 381.422 191.9 381.517 191.883C385.991 191.648 387.697 189.498 387.759 189.473C387.79 189.433 387.829 189.399 387.873 189.374C387.918 189.349 387.967 189.333 388.018 189.328C388.068 189.322 388.119 189.326 388.168 189.341C388.217 189.355 388.263 189.379 388.303 189.411C388.385 189.476 388.439 189.57 388.453 189.674C388.467 189.778 388.44 189.883 388.377 189.967C388.303 190.067 386.424 192.439 381.567 192.674H381.542Z" fill="#263238"/>
<path d="M381.541 187.804L380.812 180.304L377.574 187.127C378.119 187.576 378.772 187.875 379.468 187.994C380.164 188.113 380.879 188.049 381.542 187.807L381.541 187.804Z" fill="#A02724"/>
<path d="M386.534 180.302C386.534 181.241 386.967 182.008 387.511 182.008C388.055 182.008 388.487 181.242 388.487 180.302C388.487 179.362 388.054 178.596 387.511 178.596C386.968 178.596 386.534 179.362 386.534 180.302Z" fill="#263238"/>
<path d="M376.596 182.008C377.135 182.008 377.572 181.244 377.572 180.302C377.572 179.36 377.135 178.596 376.596 178.596C376.057 178.596 375.62 179.36 375.62 180.302C375.62 181.244 376.057 182.008 376.596 182.008Z" fill="#263238"/>
<path d="M393.048 176.531C392.963 176.533 392.878 176.514 392.803 176.476C392.727 176.437 392.662 176.38 392.615 176.309C392.553 176.209 390.934 174.035 387.177 174.727C387.108 174.741 387.038 174.742 386.97 174.728C386.901 174.715 386.836 174.688 386.778 174.648C386.721 174.609 386.672 174.559 386.634 174.5C386.596 174.442 386.571 174.376 386.559 174.307C386.537 174.17 386.568 174.03 386.646 173.915C386.724 173.8 386.843 173.719 386.979 173.689C391.429 172.873 393.394 175.58 393.479 175.704C393.532 175.784 393.563 175.876 393.569 175.972C393.574 176.067 393.554 176.162 393.509 176.247C393.465 176.332 393.398 176.403 393.317 176.454C393.235 176.504 393.141 176.531 393.046 176.532L393.048 176.531Z" fill="#263238"/>
<path d="M374.941 175.84C374.855 175.839 374.771 175.817 374.694 175.778C374.634 175.747 374.58 175.704 374.536 175.652C374.492 175.6 374.458 175.54 374.438 175.475C374.417 175.409 374.409 175.341 374.415 175.273C374.421 175.205 374.44 175.139 374.471 175.078C374.888 174.384 375.502 173.829 376.235 173.483C376.967 173.138 377.786 173.018 378.587 173.138C378.656 173.147 378.722 173.17 378.781 173.205C378.841 173.24 378.893 173.286 378.934 173.341C378.976 173.397 379.006 173.459 379.023 173.526C379.039 173.593 379.043 173.663 379.032 173.731C379.025 173.799 379.003 173.865 378.97 173.924C378.936 173.984 378.891 174.036 378.837 174.078C378.782 174.119 378.72 174.149 378.654 174.166C378.588 174.183 378.519 174.187 378.451 174.176C377.865 174.088 377.265 174.172 376.726 174.417C376.186 174.663 375.729 175.06 375.41 175.56C375.363 175.644 375.295 175.715 375.213 175.764C375.13 175.814 375.036 175.842 374.94 175.844L374.941 175.84Z" fill="#263238"/>
<path opacity="0.2" d="M397.373 203.725C396.672 206.296 395.606 208.755 394.209 211.025C394.121 208.927 393.759 206.849 393.134 204.845L397.373 203.725Z" fill="black"/>
<path opacity="0.2" d="M373.939 269.813V261.989L370.775 268.478L373.939 269.813Z" fill="black"/>
<path opacity="0.2" d="M425.518 259.368L423.108 245.29L422.428 260.616L425.518 259.368Z" fill="black"/>
<path d="M442.759 288.909C442.611 299.209 437.976 304.334 424.417 305.793C410.858 307.252 387.943 302.666 387.943 302.666C385.026 304.545 378.352 302.666 378.352 302.666H369.181L366.066 293.581L377.524 290.788L386.695 293.075C400.452 294.954 427.545 290.999 427.545 290.999C426.766 285.536 425.889 267.699 425.518 259.37L441.685 254.587C443.278 265.524 442.895 280.035 442.759 288.909Z" fill="#B55B52"/>
<path d="M203.656 235.143L214.595 290.899C214.838 292.107 215.491 293.195 216.444 293.976C217.396 294.758 218.59 295.186 219.823 295.188H312.436C313.213 295.187 313.981 295.016 314.685 294.687C315.389 294.358 316.012 293.878 316.51 293.282C317.009 292.685 317.371 291.987 317.57 291.236C317.769 290.485 317.801 289.699 317.664 288.934L307.776 233.178C307.558 231.95 306.915 230.838 305.959 230.038C305.003 229.238 303.795 228.801 302.548 228.803H208.884C208.097 228.798 207.319 228.969 206.606 229.302C205.894 229.636 205.264 230.124 204.763 230.731C204.263 231.338 203.904 232.049 203.712 232.813C203.521 233.576 203.501 234.372 203.656 235.144V235.143Z" fill="#7195C5"/>
<path opacity="0.2" d="M303.895 228.802L315.464 295.188C315.87 295.189 316.271 295.101 316.639 294.929C317.007 294.758 317.333 294.508 317.594 294.196C317.855 293.885 318.044 293.52 318.148 293.128C318.252 292.735 318.268 292.324 318.196 291.925L307.356 231.077C307.242 230.436 306.905 229.857 306.405 229.44C305.905 229.024 305.274 228.798 304.624 228.803L303.895 228.802Z" fill="black"/>
<path d="M215.682 300.515H358.119C358.12 299.814 357.983 299.121 357.716 298.474C357.449 297.827 357.057 297.239 356.562 296.744C356.067 296.249 355.478 295.857 354.831 295.589C354.184 295.322 353.491 295.186 352.791 295.188H221.034C219.618 295.184 218.258 295.744 217.255 296.743C216.251 297.742 215.685 299.098 215.682 300.515Z" fill="#E1E3F8"/>
<path opacity="0.2" d="M311.064 300.515H358.118C358.12 299.815 357.983 299.122 357.716 298.475C357.45 297.828 357.057 297.24 356.563 296.745C356.068 296.25 355.481 295.858 354.834 295.591C354.187 295.323 353.494 295.186 352.794 295.188H316.416C315 295.184 313.641 295.744 312.637 296.743C311.634 297.742 311.068 299.098 311.064 300.515Z" fill="black"/>
<path opacity="0.4" d="M249.338 264.065C250.338 270.999 255.138 276.054 260.054 275.35C264.97 274.646 268.154 268.441 267.161 261.507C266.168 254.573 261.361 249.518 256.445 250.222C251.529 250.926 248.337 257.118 249.338 264.065Z" fill="white"/>
<path opacity="0.2" d="M215.682 300.515H358.119C358.12 299.814 357.983 299.121 357.716 298.474C357.449 297.827 357.057 297.239 356.562 296.744C356.067 296.249 355.478 295.857 354.831 295.589C354.184 295.322 353.491 295.186 352.791 295.188H221.034C219.618 295.184 218.258 295.744 217.255 296.743C216.251 297.742 215.685 299.098 215.682 300.515Z" fill="black"/>
<path d="M157.343 307.411H403.307C403.307 305.077 402.38 302.839 400.729 301.189C399.079 299.538 396.841 298.611 394.507 298.611H166.156C163.821 298.611 161.581 299.538 159.929 301.188C158.276 302.838 157.346 305.076 157.343 307.411Z" fill="#263238"/>
</svg>
