<svg xmlns="http://www.w3.org/2000/svg" width="618" height="508.571" viewBox="0 0 618 508.571">
  <g id="그룹_265" data-name="그룹 265" transform="translate(-2200 -3185)">
    <g id="그룹_238" data-name="그룹 238" transform="translate(2565.915 3185) rotate(30)">
      <g id="그룹_9" data-name="그룹 9" transform="translate(0 0)">
        <path id="합치기_1" data-name="합치기 1" d="M58.023,135.54l.7-16.337a52.19,52.19,0,0,1-11.5-3.458l-9.112,14.727s-5.8-2-14.229-10.015c0,0-1.152-.78-10.17-10.17L25.985,99.017a52.484,52.484,0,0,1-7.247-13.235L2.107,88.791S-.291,83.144.029,71.516c0,0-.191-1.377.752-14.362l15.4,1.467a52.25,52.25,0,0,1,2.95-10.57L5,39.309s2-5.8,10.015-14.229c0,0,.778-1.15,10.169-10.169L35.481,26.12a52.519,52.519,0,0,1,13.761-7.83L45.663,3.1S51.177.4,62.807.117c0,0,1.365-.263,14.381,0l-.656,15.392A52.207,52.207,0,0,1,89.5,19.387L97.1,7.1s5.8,2,14.228,10.015c0,0,1.152.78,10.17,10.169l-10.559,9.7a52.467,52.467,0,0,1,6.405,12.072l13.92-3.278s2.692,5.514,2.98,17.144c0,0,.263,1.363,0,14.381l-14.411-.614a52.24,52.24,0,0,1-3.828,12.377l13.171,8.15s-2,5.8-10.015,14.229c0,0-.778,1.152-10.169,10.169L98.579,110.265a52.443,52.443,0,0,1-12.712,6.668l3.68,15.627s-5.512,2.691-17.142,2.98a44.01,44.01,0,0,1-4.868.117C65.406,135.657,62.362,135.628,58.023,135.54Z" transform="translate(0 0)" fill="#eeeef8"/>
        <g id="그룹_4" data-name="그룹 4" transform="translate(34.575 33.955)">
          <circle id="타원_3" data-name="타원 3" cx="33.473" cy="33.473" r="33.473" fill="#fff"/>
          <circle id="타원_4" data-name="타원 4" cx="23.909" cy="23.909" r="23.909" transform="translate(9.564 9.564)" fill="#eeeef8"/>
        </g>
      </g>
    </g>
    <g id="그룹_239" data-name="그룹 239" transform="translate(2339.939 3392.933) rotate(-60)" opacity="0.54">
      <g id="그룹_9-2" data-name="그룹 9" transform="translate(0 0)">
        <path id="합치기_1-2" data-name="합치기 1" d="M36.056,84.226l.432-10.152a32.431,32.431,0,0,1-7.143-2.149l-5.662,9.152s-3.606-1.241-8.842-6.224a87.973,87.973,0,0,1-6.32-6.32l7.627-7a32.614,32.614,0,0,1-4.5-8.224L1.309,55.175S-.181,51.667.018,44.441a87.972,87.972,0,0,1,.467-8.925l9.569.911a32.469,32.469,0,0,1,1.833-6.568L3.11,24.427s1.24-3.6,6.224-8.842a87.913,87.913,0,0,1,6.319-6.319l6.4,6.965A32.636,32.636,0,0,1,30.6,11.366L28.376,1.924S31.8.251,39.029.073a87.787,87.787,0,0,1,8.936,0l-.408,9.565a32.442,32.442,0,0,1,8.057,2.409L60.34,4.41s3.6,1.241,8.841,6.224a87.994,87.994,0,0,1,6.32,6.319L68.94,22.978a32.6,32.6,0,0,1,3.98,7.5l8.65-2.037s1.673,3.426,1.852,10.653a87.755,87.755,0,0,1,0,8.936l-8.955-.382a32.463,32.463,0,0,1-2.379,7.691l8.184,5.064s-1.24,3.6-6.224,8.842c0,0-.484.716-6.319,6.319L61.258,68.52a32.589,32.589,0,0,1-7.9,4.144l2.287,9.711s-3.425,1.672-10.652,1.852a27.346,27.346,0,0,1-3.025.073C40.644,84.3,38.753,84.28,36.056,84.226Z" transform="translate(0 0)" fill="#eeeef8"/>
        <g id="그룹_4-2" data-name="그룹 4" transform="translate(21.485 21.1)">
          <circle id="타원_3-2" data-name="타원 3" cx="20.8" cy="20.8" r="20.8" fill="#fff"/>
          <circle id="타원_4-2" data-name="타원 4" cx="14.857" cy="14.857" r="14.857" transform="translate(5.943 5.943)" fill="#eeeef8"/>
        </g>
      </g>
    </g>
    <g id="freepik--background-complete--inject-1--inject-82" transform="translate(2200 3209.503)">
      <rect id="사각형_184" data-name="사각형 184" width="618" height="0.309" transform="translate(0 404.666)" fill="#ebebeb"/>
      <rect id="사각형_185" data-name="사각형 185" width="28.65" height="0.309" transform="translate(185.449 412.552)" fill="#ebebeb"/>
      <rect id="사각형_186" data-name="사각형 186" width="70.044" height="0.309" transform="translate(496.996 419.177)" fill="#ebebeb"/>
      <rect id="사각형_187" data-name="사각형 187" width="70.044" height="0.309" transform="translate(52.802 419.177)" fill="#ebebeb"/>
      <rect id="사각형_188" data-name="사각형 188" width="26.698" height="0.309" transform="translate(530.293 442.871)" fill="#ebebeb"/>
      <path id="패스_641" data-name="패스 641" d="M484.018,322.927c-2.583-7.416-22.965,2.67-31.184,14.943-5.5,8.17-8.862,16.908-10.419,28.626.185-13.4.4-27.748.606-41.307,1.669-3.374,5.475-11.186,8.232-17.3,9.146-20.616,30.9-28.28,38.415-41.307,9.888-17.057,9.789-42.63,1.409-51.85-7.231-8.071-31.419,46.165-34.138,52.221a161.569,161.569,0,0,0-13.806,51.294c.185-12.743.383-24.436.544-33.508.507-29.429,1.149-38.9,1.434-41.8,1.014-1.434,2.2-3.09,2.88-3.98,5.834-7.515,18.787-16.464,25.264-27.39,9.455-15.957,7.923-35.053,1.3-42.111-6.934-7.416-19.2,10.135-25.7,27.538s-3.708,34.077-5.55,48.538c-.383,2.88-.779,13.6-1.149,28.552-1.978-16.068-5.908-26.846-13.188-36.882-8.973-12.36-16.711-27.377-24.09-25.437s-3.411,21.84,2.472,35.844c5.2,12.434,30.9,24.831,34.608,34.83-.433,20.246-.841,45.942-1.125,69.8-2.015-12.36-.63-13.4-8.924-32.26-4.944-11.235-25.14-25.091-27.538-17.366s1.236,22.248,8.874,32.544c6.18,8.244,19.776,8.232,22.977,13.349.729,1.236,3.164,5.735,4.561,8.392-.334,29.157-.482,54.9-.309,63.691l1.323.087c-.062-2.262.1-17.106.358-36.746,3.312-10.432,25.647-16.538,32.544-27.4C481.929,345.089,487.108,331.827,484.018,322.927Z" transform="translate(94.603 -28.401)" fill="#e6e6e6"/>
      <path id="패스_642" data-name="패스 642" d="M460.826,386.558h-42.84a4.944,4.944,0,0,1-4.783-3.943L410.15,367.61h58.586L465.7,382.615A4.944,4.944,0,0,1,460.826,386.558Z" transform="translate(96.795 18.776)" fill="#e6e6e6"/>
      <path id="패스_643" data-name="패스 643" d="M470.951,375.527H409.917a2.867,2.867,0,0,1-2.868-2.546l-1.236-11.124a2.88,2.88,0,0,1,2.472-3.177h63.876a2.868,2.868,0,0,1,2.892,2.855,3.013,3.013,0,0,1,0,.334l-1.236,11.124a2.843,2.843,0,0,1-2.868,2.534Z" transform="translate(95.768 16.668)" fill="#f0f0f0"/>
      <rect id="사각형_189" data-name="사각형 189" width="86.273" height="94.727" transform="translate(65.397 42.036)" fill="#e6e6e6"/>
      <rect id="사각형_190" data-name="사각형 190" width="92.502" height="94.727" transform="translate(66.546 42.036)" fill="#f5f5f5"/>
      <rect id="사각형_191" data-name="사각형 191" width="80.711" height="82.923" transform="translate(72.442 47.932)" fill="#fff"/>
      <path id="패스_644" data-name="패스 644" d="M82.856,162.452h0a24.621,24.621,0,0,1,0-34.806h0l24.127-24.176h0a24.621,24.621,0,0,1,0,34.806Z" transform="translate(17.854 -43.561)" fill="#f5f5f5"/>
      <rect id="사각형_192" data-name="사각형 192" width="58.722" height="66.274" transform="translate(66.67 186.71)" fill="#e6e6e6"/>
      <rect id="사각형_193" data-name="사각형 193" width="65.78" height="66.274" transform="translate(68.104 186.71)" fill="#f5f5f5"/>
      <rect id="사각형_194" data-name="사각형 194" width="52.209" height="52.715" transform="translate(74.902 193.496)" fill="#fff"/>
      <rect id="사각형_195" data-name="사각형 195" width="21.815" height="21.815" rx="5.4" transform="translate(85.559 219.852) rotate(-45)" fill="#f5f5f5"/>
    </g>
    <rect id="사각형_196" data-name="사각형 196" width="26.759" height="134.984" transform="translate(2427.684 3479.001)" fill="#e6e6e6"/>
    <rect id="사각형_197" data-name="사각형 197" width="115.455" height="134.984" transform="translate(2312.229 3479.013)" fill="#f0f0f0"/>
    <rect id="사각형_198" data-name="사각형 198" width="94.418" height="31.11" transform="translate(2322.747 3530.938)" fill="#e6e6e6"/>
    <rect id="사각형_199" data-name="사각형 199" width="94.418" height="31.11" transform="translate(2322.747 3568.994)" fill="#e6e6e6"/>
    <path id="패스_645" data-name="패스 645" d="M129.416,319.436h21.21a2.633,2.633,0,0,0,2.608-2.608h0a2.62,2.62,0,0,0-2.608-2.608h-21.21a2.608,2.608,0,0,0-2.6,2.608h0a2.608,2.608,0,0,0,2.6,2.608Z" transform="translate(2229.929 3215.679)" fill="#f0f0f0"/>
    <rect id="사각형_200" data-name="사각형 200" width="94.418" height="31.11" transform="translate(2322.747 3492.894)" fill="#e6e6e6"/>
    <path id="패스_646" data-name="패스 646" d="M129.416,288.646h21.21a2.62,2.62,0,0,0,2.608-2.608h0a2.633,2.633,0,0,0-2.608-2.608h-21.21a2.608,2.608,0,0,0-2.6,2.608h0A2.608,2.608,0,0,0,129.416,288.646Z" transform="translate(2229.929 3208.413)" fill="#f0f0f0"/>
    <path id="패스_647" data-name="패스 647" d="M129.416,350.226h21.21a2.62,2.62,0,0,0,2.608-2.62h0a2.608,2.608,0,0,0-2.608-2.6h-21.21a2.6,2.6,0,0,0-2.6,2.6h0A2.608,2.608,0,0,0,129.416,350.226Z" transform="translate(2229.929 3222.946)" fill="#f0f0f0"/>
    <rect id="사각형_201" data-name="사각형 201" width="119.027" height="7.095" transform="translate(2308.657 3471.906)" fill="#e6e6e6"/>
    <rect id="사각형_202" data-name="사각형 202" width="30.492" height="7.095" transform="translate(2427.684 3471.918)" fill="#e0e0e0"/>
    <g id="freepik--Shadow--inject-82" transform="translate(2299.906 3659.407)">
      <ellipse id="타원_152" data-name="타원 152" cx="216.51" cy="17.082" rx="216.51" ry="17.082" fill="#f5f5f5"/>
    </g>
    <rect id="사각형_203" data-name="사각형 203" width="6.093" height="190.431" transform="translate(2403.557 3675.191) rotate(180)" fill="#263238"/>
    <path id="패스_662" data-name="패스 662" d="M4.586,0H105.221V13.954H4.586A4.586,4.586,0,0,1,0,9.369V4.586A4.586,4.586,0,0,1,4.586,0Z" transform="translate(2653.093 3570.168) rotate(180)" fill="#e1e3f8"/>
    <line id="선_111" data-name="선 111" x1="7.292" y1="115.257" transform="translate(2637.346 3560.985)" fill="none" stroke="#e1e3f8" stroke-linecap="round" stroke-linejoin="round" stroke-width="2.826"/>
    <line id="선_112" data-name="선 112" x1="7.292" y1="115.257" transform="translate(2609.425 3566.695)" fill="none" stroke="#e1e3f8" stroke-linecap="round" stroke-linejoin="round" stroke-width="2.826"/>
    <line id="선_113" data-name="선 113" y1="115.257" x2="7.292" transform="translate(2543.534 3560.985)" fill="none" stroke="#e1e3f8" stroke-linecap="round" stroke-linejoin="round" stroke-width="2.826"/>
    <line id="선_114" data-name="선 114" y1="115.257" x2="7.292" transform="translate(2571.455 3566.695)" fill="none" stroke="#e1e3f8" stroke-linecap="round" stroke-linejoin="round" stroke-width="2.826"/>
    <path id="패스_663" data-name="패스 663" d="M4.586,0H105.221V13.954H4.586A4.586,4.586,0,0,1,0,9.369V4.586A4.586,4.586,0,0,1,4.586,0Z" transform="translate(2662.029 3560.985) rotate(180)" fill="#e1e3f8"/>
    <path id="패스_664" data-name="패스 664" d="M4.586,0H105.221V13.954H4.586A4.586,4.586,0,0,1,0,9.369V4.586A4.586,4.586,0,0,1,4.586,0Z" transform="translate(2662.029 3560.985) rotate(180)" opacity="0.2"/>
    <rect id="사각형_204" data-name="사각형 204" width="6.093" height="190.431" transform="translate(2562.185 3679.74) rotate(180)" fill="#263238"/>
    <path id="패스_665" data-name="패스 665" d="M320.408,293.1s-69.649,2.62-81.218,30.579c0,0,1.607,83.269,10.926,110.6l19.937-2.262-3.189-80.946,72.046-57.944Z" transform="translate(2256.449 3210.695)" fill="#263238"/>
    <path id="패스_666" data-name="패스 666" d="M320.408,293.1s-69.649,2.62-81.218,30.579c0,0,1.607,83.269,10.926,110.6l19.937-2.262-3.189-80.946,72.046-57.944Z" transform="translate(2256.449 3210.695)" opacity="0.2"/>
    <path id="패스_667" data-name="패스 667" d="M263.923,425.175H251.477l-.173-8.294-.124-6.5,12.162.742.235,5.76Z" transform="translate(2259.278 3238.373)" fill="#b55b52"/>
    <path id="패스_668" data-name="패스 668" d="M263.577,416.881H251.3l-.124-6.5,12.162.742Z" transform="translate(2259.278 3238.373)" opacity="0.2"/>
    <path id="패스_669" data-name="패스 669" d="M272.006,414.309l-26.648.8-4.857-9.888,30.764-.284Z" transform="translate(2256.758 3237.089)" fill="#e1e3f8"/>
    <path id="패스_670" data-name="패스 670" d="M249.4,425.09s.643-7.3-1.9-6.291S247.791,423.545,249.4,425.09Z" transform="translate(2258.168 3240.337)" fill="none" stroke="#e1e3f8" stroke-miterlimit="10" stroke-width="0.942"/>
    <path id="패스_671" data-name="패스 671" d="M250.183,424.335s-5.475-3.832-6.872-1.879S250.183,424.335,250.183,424.335Z" transform="translate(2257.384 3241.092)" fill="none" stroke="#e1e3f8" stroke-miterlimit="10" stroke-width="0.942"/>
    <path id="패스_672" data-name="패스 672" d="M256.886,421l9.888.1a2.818,2.818,0,0,1,2.744,2.6l.692,8.738a2.707,2.707,0,0,1-2.756,2.942c-5.352-.161-16.365-.445-20.27-.334-5.228.148-12.657.235-13.72-1.755a2.583,2.583,0,0,1,.63-3.288s14.251-1.323,20.8-8.1a2.806,2.806,0,0,1,1.99-.9Z" transform="translate(2255.018 3240.88)" fill="#263238"/>
    <path id="패스_673" data-name="패스 673" d="M382.895,293.1s1.323,16.229.828,28.774c-.569,14.461-31.7,27.192-77.028,19.776,0,0-3.535,24.436-16.068,46.968s-32.136,55.941-32.136,55.941L239.21,432.014s25.387-70.452,30.22-90.006,6.749-28.935,20.567-35.041S334.036,293.1,334.036,293.1Z" transform="translate(2256.454 3210.695)" fill="#263238"/>
    <path id="패스_674" data-name="패스 674" d="M252.08,413.665l-2.287,3.51-5.031,7.75L235.11,419.3l5.055-7.861,1.965-3.041Z" transform="translate(2255.486 3237.906)" fill="#b55b52"/>
    <path id="패스_675" data-name="패스 675" d="M251.115,413.665l-2.287,3.51-9.628-5.735,1.965-3.041Z" transform="translate(2256.451 3237.906)" opacity="0.2"/>
    <path id="패스_676" data-name="패스 676" d="M264.477,413.269,239.2,398.14l-4.091,10.1L259.1,422.094Z" transform="translate(2255.486 3235.485)" fill="#e1e3f8"/>
    <path id="패스_677" data-name="패스 677" d="M229.967,418.752s1.842-6.328-.222-6.452S229.967,418.752,229.967,418.752Z" transform="translate(2254.016 3238.826)" fill="none" stroke="#e1e3f8" stroke-miterlimit="10" stroke-width="0.942"/>
    <path id="패스_678" data-name="패스 678" d="M230.438,418.392s-2.855-6.872-5.154-5.34S230.438,418.392,230.438,418.392Z" transform="translate(2253.063 3238.951)" fill="none" stroke="#e1e3f8" stroke-miterlimit="10" stroke-width="0.942"/>
    <path id="패스_679" data-name="패스 679" d="M241.173,417.38l8.43,4.944a2.707,2.707,0,0,1,1.051,3.547l-3.819,7.75a2.732,2.732,0,0,1-3.869,1.112c-4.536-2.793-13.893-8.516-17.3-10.358-4.6-2.472-11.037-6.081-10.951-8.294a2.571,2.571,0,0,1,2.212-2.472s12.953,5.958,22.038,3.486a2.88,2.88,0,0,1,2.212.284Z" transform="translate(2250.671 3239.135)" fill="#263238"/>
    <path id="패스_680" data-name="패스 680" d="M304.187,236.36s-2.6,28.354-1.557,35.646c0,0-27.093,3.968-40.788,2.089l-9.171-2.3L241.2,274.6l3.127,9.085H253.5s6.674,1.879,9.591,0c0,0,22.928,4.586,36.474,3.127s17.749-6.613,18.355-16.884c.569-9.888,7.082-31.914,1.879-36.919Z" transform="translate(2256.923 3196.514)" fill="#b55b52"/>
    <path id="패스_681" data-name="패스 681" d="M386.28,244.808s-10.395-26.4-20.505-32.358-56.93,5.438-56.93,5.438-20.085,6.464-21.234,37.846l18.453,7.824,2.917,48.983h62.492l-.334-63.444Z" transform="translate(2267.876 3191.255)" fill="#e1e3f8"/>
    <path id="패스_682" data-name="패스 682" d="M307.034,179.349s-6.18-.779-7.861-5.414,4.771-2.3,4.227-10.679,9.085-10.382,16.068-6.7,18.07-.334,22.248,4.7,2.348,9.715,2.348,9.715,12.014,13.6-3.214,22.878S307.034,179.349,307.034,179.349Z" transform="translate(2270.539 3178.054)" fill="#263238"/>
    <path id="패스_683" data-name="패스 683" d="M342.507,220.874c-6.674,10.172-12.681,11.223-20.728,11.211-9.035,0-6.007-6.415-6.007-6.415,3.782-1.891,6.538-3.918,6.971-8.578a18.385,18.385,0,0,0,.062-2.719,24.151,24.151,0,0,0-1.075-6.18c-12.793,1.162-17.3-5.08-18.9-16.859a36.252,36.252,0,0,1,3.782-21.074c7.416,8.726,21.37,1.891,21.37,1.891-3.918,11.334,5.673,15.4,5.673,15.4,3.708-2.324,6.674-.3,6.39,4.215a6.3,6.3,0,0,1-4.215,5.673C335.1,217.525,342.507,220.874,342.507,220.874Z" transform="translate(2271.404 3181.705)" fill="#b55b52"/>
    <path id="패스_684" data-name="패스 684" d="M308.766,191.7a.4.4,0,0,1-.025-.791c4.474-.235,6.18-2.385,6.242-2.41a.383.383,0,0,1,.544-.062.4.4,0,0,1,.074.556c-.074.1-1.953,2.472-6.81,2.707Z" transform="translate(2272.775 3185.974)" fill="#263238"/>
    <path id="패스_685" data-name="패스 685" d="M309.448,188.553l-.729-7.5-3.238,6.823a4.054,4.054,0,0,0,3.968.68Z" transform="translate(2272.093 3184.251)" fill="#a02724"/>
    <path id="패스_686" data-name="패스 686" d="M312.73,181.376c0,.939.433,1.706.977,1.706s.976-.766.976-1.706-.433-1.706-.976-1.706S312.73,180.436,312.73,181.376Z" transform="translate(2273.804 3183.926)" fill="#263238"/>
    <ellipse id="타원_153" data-name="타원 153" cx="0.976" cy="1.706" rx="0.976" ry="1.706" transform="translate(2575.62 3363.596)" fill="#263238"/>
    <path id="패스_687" data-name="패스 687" d="M319.24,178.572a.507.507,0,0,1-.433-.222c-.062-.1-1.681-2.274-5.438-1.582a.519.519,0,0,1-.618-.42.544.544,0,0,1,.42-.618c4.45-.816,6.415,1.891,6.5,2.015a.531.531,0,0,1-.433.828Z" transform="translate(2273.808 3182.959)" fill="#263238"/>
    <path id="패스_688" data-name="패스 688" d="M303.451,177.966a.568.568,0,0,1-.247-.062.519.519,0,0,1-.223-.7,4.091,4.091,0,0,1,4.116-1.94.519.519,0,0,1,.445.593.507.507,0,0,1-.581.445,3.065,3.065,0,0,0-3.041,1.384.556.556,0,0,1-.47.284Z" transform="translate(2271.49 3182.874)" fill="#263238"/>
    <path id="패스_689" data-name="패스 689" d="M303.784,188.013a5.846,5.846,0,1,1,4.142-1.708,5.846,5.846,0,0,1-4.142,1.708Zm0-10.914a5.037,5.037,0,1,1,0,.062Z" transform="translate(2270.316 3183.135)" fill="none"/>
    <path id="패스_690" data-name="패스 690" d="M315.116,188.013a5.846,5.846,0,1,1,5.846-5.846,5.846,5.846,0,0,1-5.846,5.846Zm0-10.914a5.037,5.037,0,1,1,0,.062Z" transform="translate(2272.988 3183.135)" fill="none"/>
    <line id="선_115" data-name="선 115" x2="2.25" transform="translate(2579.959 3365.301)" fill="none"/>
    <line id="선_116" data-name="선 116" x2="10.963" y2="2.633" transform="translate(2593.53 3366.377)" fill="none"/>
    <path id="패스_691" data-name="패스 691" d="M322.309,200a27.931,27.931,0,0,1-3.164,7.3,24.155,24.155,0,0,0-1.075-6.18Z" transform="translate(2275.064 3188.724)" opacity="0.2"/>
    <path id="패스_692" data-name="패스 692" d="M303.144,254.964V247.14l-3.164,6.489Z" transform="translate(2270.795 3199.849)" opacity="0.2"/>
    <path id="패스_693" data-name="패스 693" d="M344.86,247.708l-2.41-14.078-.68,15.326Z" transform="translate(2280.658 3196.66)" opacity="0.2"/>
    <path id="패스_694" data-name="패스 694" d="M372.864,275.474c-.148,10.3-4.783,15.425-18.342,16.884s-36.474-3.127-36.474-3.127c-2.917,1.879-9.591,0-9.591,0h-9.171l-3.115-9.085,11.458-2.793,9.171,2.287c13.757,1.879,40.85-2.076,40.85-2.076-.779-5.463-1.656-23.3-2.027-31.629l16.167-4.783C373.383,252.089,373,266.6,372.864,275.474Z" transform="translate(2269.896 3198.435)" fill="#b55b52"/>
    <path id="패스_695" data-name="패스 695" d="M164.79,226.631l10.939,55.756a5.34,5.34,0,0,0,5.228,4.289H273.57a5.315,5.315,0,0,0,5.228-6.254l-9.888-55.756a5.3,5.3,0,0,0-5.228-4.375H170.018a5.3,5.3,0,0,0-5.228,6.341Z" transform="translate(2238.866 3193.512)" fill="#e1e3f8"/>
    <path id="패스_696" data-name="패스 696" d="M245.87,220.29l11.569,66.386h0a2.769,2.769,0,0,0,2.732-3.263l-10.84-60.848a2.756,2.756,0,0,0-2.732-2.274Z" transform="translate(2258.025 3193.512)" opacity="0.2"/>
    <path id="패스_697" data-name="패스 697" d="M174.5,279.327H316.937A5.315,5.315,0,0,0,311.609,274H179.852A5.34,5.34,0,0,0,174.5,279.327Z" transform="translate(2241.182 3206.188)" fill="#e1e3f8"/>
    <path id="패스_698" data-name="패스 698" d="M251.67,279.327h47.054A5.315,5.315,0,0,0,293.4,274H257.022A5.34,5.34,0,0,0,251.67,279.327Z" transform="translate(2259.394 3206.188)" opacity="0.2"/>
    <path id="패스_699" data-name="패스 699" d="M201.765,251.476c1,6.934,5.8,11.989,10.716,11.285s8.1-6.909,7.107-13.843-5.8-11.989-10.716-11.285S200.764,244.529,201.765,251.476Z" transform="translate(2247.573 3197.589)" fill="#fff" opacity="0.4"/>
    <path id="패스_700" data-name="패스 700" d="M174.5,279.327H316.937A5.315,5.315,0,0,0,311.609,274H179.852A5.34,5.34,0,0,0,174.5,279.327Z" transform="translate(2241.182 3206.188)" opacity="0.2"/>
    <path id="패스_701" data-name="패스 701" d="M127.3,285.57H373.264a8.8,8.8,0,0,0-8.8-8.8H136.113a8.813,8.813,0,0,0-8.813,8.8Z" transform="translate(2230.043 3206.841)" fill="#263238"/>
  </g>
</svg>
