<svg xmlns="http://www.w3.org/2000/svg" width="43" height="43" viewBox="0 0 43 43">
  <g id="그룹_265" data-name="그룹 265" transform="translate(43 42.963) rotate(180)">
    <g id="타원_129" data-name="타원 129" transform="translate(0 -0.037)" fill="#fff" stroke="#e3e4f8" stroke-width="1">
      <circle cx="21.5" cy="21.5" r="21.5" stroke="none"/>
      <circle cx="21.5" cy="21.5" r="21" fill="none"/>
    </g>
    <path id="합치기_23" data-name="합치기 23" d="M8.1,18.68.83,11.4A1.622,1.622,0,0,1,.4,10.649a1.63,1.63,0,0,1,.464-2.51,1.629,1.629,0,0,1,.287-.387L8.426.477a1.629,1.629,0,0,1,2.3,2.3L5.563,7.949H21.491a1.629,1.629,0,0,1,0,3.258H5.24l5.168,5.169a1.629,1.629,0,1,1-2.3,2.3Z" transform="translate(9.764 12.111)" fill="#ced0ee"/>
  </g>
</svg>
